<?xml version="1.0" encoding="utf-8"?>
<!-- Generator: Adobe Illustrator 21.1.0, SVG Export Plug-In . SVG Version: 6.00 Build 0)  -->
<svg version="1.1" id="Layer_1" xmlns="http://www.w3.org/2000/svg" xmlns:xlink="http://www.w3.org/1999/xlink" x="0px" y="0px"
	 viewBox="0 0 389.5 39.4" style="enable-background:new 0 0 389.5 39.4;" xml:space="preserve">
<style type="text/css">
	.st0{fill:#FFFFFF;}
</style>
<path class="st0" d="M0,20.2c0-3.1,0.5-5.9,1.6-8.3C2.7,9.4,4.2,7.2,6,5.5c1.8-1.8,4-3.1,6.5-4.1C14.9,0.5,17.5,0,20.3,0
	c2.2,0,4.1,0.2,5.9,0.6c1.7,0.4,3.2,0.9,4.4,1.4c1.4,0.6,2.7,1.3,3.7,2l-6.1,10.7c-0.6-0.5-1.3-0.9-2-1.3c-0.7-0.3-1.4-0.6-2.3-0.9
	c-0.9-0.3-1.9-0.4-3.1-0.4c-1.2,0-2.3,0.2-3.3,0.6c-1,0.4-1.9,1-2.6,1.7c-0.7,0.7-1.3,1.6-1.8,2.6c-0.4,1-0.6,2-0.6,3.1
	c0,1.1,0.2,2.2,0.7,3.1c0.4,1,1,1.8,1.8,2.6c0.8,0.7,1.7,1.3,2.7,1.7c1,0.4,2.2,0.6,3.4,0.6c1.2,0,2.3-0.2,3.3-0.5
	c1-0.3,1.8-0.7,2.4-1c0.8-0.4,1.4-0.9,2-1.5l6.1,10.7c-1,0.8-2.3,1.6-3.7,2.2c-1.2,0.5-2.7,1-4.4,1.5c-1.7,0.5-3.7,0.7-5.9,0.7
	c-3,0-5.8-0.5-8.3-1.5c-2.5-1-4.7-2.4-6.6-4.1C4,33,2.6,30.9,1.6,28.4C0.5,25.9,0,23.2,0,20.2z"/>
<path class="st0" d="M48.5,39.4H36.3V0.9h13.3c2.5,0,4.7,0.3,6.8,1c2.1,0.7,3.9,1.6,5.4,2.9c1.5,1.3,2.7,2.8,3.6,4.7
	c0.9,1.9,1.3,4,1.3,6.4c0,1.9-0.3,3.6-0.8,4.9c-0.5,1.3-1.1,2.5-1.8,3.3c-0.8,1-1.6,1.8-2.6,2.5l7.2,12.7H54.3 M48.5,19.8h0.6
	c1.5,0,2.7-0.3,3.7-1c1-0.7,1.5-1.7,1.5-3.3c0-1.5-0.5-2.6-1.5-3.3c-1-0.7-2.3-1-3.7-1h-0.6V19.8z"/>
<path class="st0" d="M69.9,0.9h22.7V11H82.2v4.3h10.2v9.6H82.2v4.4h10.8v10.1H69.9V0.9z"/>
<path class="st0" d="M115.5,39.4h-9.6L93.2,0.9h13l4.4,13.4l4.4-13.4h8.4l4.4,13.4l4.4-13.4h13l-12.7,38.5h-9.6"/>
<path class="st0" d="M169.6,20.2c0-2.8,0.5-5.4,1.6-7.8c1.1-2.5,2.5-4.6,4.3-6.4c1.8-1.8,4-3.3,6.4-4.3c2.5-1.1,5.1-1.6,7.8-1.6
	c2.8,0,5.4,0.5,7.8,1.6c2.5,1.1,4.6,2.5,6.4,4.3c1.8,1.8,3.3,4,4.3,6.4c1.1,2.5,1.6,5.1,1.6,7.8s-0.5,5.4-1.6,7.8
	c-1.1,2.5-2.5,4.6-4.3,6.4c-1.8,1.8-4,3.3-6.4,4.3c-2.5,1.1-5.1,1.6-7.8,1.6c-2.8,0-5.4-0.5-7.8-1.6s-4.6-2.5-6.4-4.3
	c-1.8-1.8-3.3-4-4.3-6.4C170.1,25.6,169.6,22.9,169.6,20.2z M181.7,20.2c0,1.1,0.2,2.2,0.6,3.1c0.4,1,1,1.8,1.7,2.6
	c0.7,0.7,1.6,1.3,2.6,1.7c1,0.4,2,0.6,3.1,0.6s2.2-0.2,3.1-0.6c1-0.4,1.8-1,2.6-1.7c0.7-0.7,1.3-1.6,1.7-2.6c0.4-1,0.6-2,0.6-3.1
	c0-1.1-0.2-2.2-0.6-3.1c-0.4-1-1-1.8-1.7-2.6c-0.7-0.7-1.6-1.3-2.6-1.7c-1-0.4-2-0.6-3.1-0.6s-2.2,0.2-3.1,0.6c-1,0.4-1.8,1-2.6,1.7
	c-0.7,0.7-1.3,1.6-1.7,2.6C181.9,18,181.7,19.1,181.7,20.2z"/>
<path class="st0" d="M225.4,39.4h-12.3V0.9h13.3c2.5,0,4.7,0.3,6.8,1c2.1,0.7,3.9,1.6,5.4,2.9c1.5,1.3,2.7,2.8,3.6,4.7
	c0.9,1.9,1.3,4,1.3,6.4c0,1.9-0.3,3.6-0.8,4.9c-0.5,1.3-1.1,2.5-1.8,3.3c-0.8,1-1.6,1.8-2.6,2.5l7.2,12.7h-14.4 M225.4,19.8h0.6
	c1.5,0,2.7-0.3,3.7-1c1-0.7,1.5-1.7,1.5-3.3c0-1.5-0.5-2.6-1.5-3.3c-1-0.7-2.3-1-3.7-1h-0.6V19.8z"/>
<path class="st0" d="M251.3,11h-7.1V0.9H271V11h-7.1v28.4h-12.7V11z"/>
<path class="st0" d="M265.6,39.4l14.6-38.5h9.2L304,39.4 M290.6,35.9h-11.6 M287.4,27.4l-2.6-6.7l-2.6,6.7H287.4z"/>
<path class="st0" d="M304.8,0.9h12.8v28.4h10.6v10.1h-23.4V0.9z"/>
<path class="st0" d="M330.2,0.9h22.7V11h-10.4v4.3h10.2v9.6h-10.2v4.4h10.8v10.1h-23.1V0.9z"/>
<path class="st0" d="M368.8,39.4h-12.1V0.9h10.1l10.6,14.8V0.9h12.1v38.5h-10.1"/>
<path class="st0" d="M165,8.8c-0.9-1.9-2.2-3.4-3.8-4.5c-1.6-1.2-3.5-2-5.6-2.5c-2.1-0.5-4.4-0.8-6.9-0.8v10.4c0.2,0,0.3,0,0.5,0
	c1.3,0,2.5,0.2,3.3,1c0.1,0,0.1,0.1,0.2,0.1c0,0,0,0,0,0.1c0.1,0.1,0.2,0.3,0.4,0.5c0,0,0.1,0.1,0.1,0.1c0.1,0.2,0.2,0.3,0.2,0.5
	c0,0.1,0.1,0.2,0.1,0.3c0,0.1,0,0.2,0.1,0.2c0.1,0.2,0.1,0.5,0.1,0.7c0,0.1,0,0.3,0,0.4c0,0.1,0,0.1,0,0.2c0,0,0,0,0,0.1
	c0,0,0,0.1,0,0.1c0,0.2,0,0.4-0.1,0.6c0,0.1,0,0.2,0,0.2c0,0.2-0.1,0.5-0.2,0.7c0,0.1,0,0.1-0.1,0.2c-0.1,0.2-0.2,0.4-0.3,0.6
	c0,0.1-0.1,0.1-0.1,0.2c-0.1,0.2-0.3,0.4-0.4,0.6c0,0,0,0,0,0c0,0,0,0,0,0c-0.8,0.9-2.1,1.4-3.5,1.4c-0.2,0-0.3,0-0.5,0v10.1
	c2.5,0,4.8-0.3,6.9-0.8c2.1-0.5,4-1.4,5.6-2.5c1.6-1.2,2.9-2.7,3.8-4.5c0.9-1.9,1.4-4.1,1.4-6.8C166.4,12.9,165.9,10.7,165,8.8z"/>
</svg>
