<?xml version="1.0" encoding="utf-8"?>
<!-- Generator: Adobe Illustrator 21.1.0, SVG Export Plug-In . SVG Version: 6.00 Build 0)  -->
<svg version="1.1" id="Layer_1" xmlns="http://www.w3.org/2000/svg" xmlns:xlink="http://www.w3.org/1999/xlink" x="0px" y="0px"
	 viewBox="0 0 389.5 39.4" style="enable-background:new 0 0 389.5 39.4;" xml:space="preserve">
<path d="M0,20.2c0-3.1,0.5-5.9,1.6-8.3C2.7,9.4,4.2,7.2,6,5.5c1.8-1.8,4-3.1,6.5-4.1c2.4-0.9,5-1.4,7.8-1.4c2.2,0,4.1,0.2,5.9,0.6
	C27.9,1,29.4,1.5,30.6,2c1.4,0.6,2.7,1.3,3.7,2l-6.1,10.7c-0.6-0.5-1.3-0.9-2-1.3c-0.7-0.3-1.4-0.6-2.3-0.9
	c-0.9-0.3-1.9-0.4-3.1-0.4s-2.3,0.2-3.3,0.6c-1,0.4-1.9,1-2.6,1.7c-0.7,0.7-1.3,1.6-1.8,2.6c-0.4,1-0.6,2-0.6,3.1s0.2,2.2,0.7,3.1
	c0.4,1,1,1.8,1.8,2.6c0.8,0.7,1.7,1.3,2.7,1.7c1,0.4,2.2,0.6,3.4,0.6c1.2,0,2.3-0.2,3.3-0.5s1.8-0.7,2.4-1c0.8-0.4,1.4-0.9,2-1.5
	l6.1,10.7c-1,0.8-2.3,1.6-3.7,2.2c-1.2,0.5-2.7,1-4.4,1.5c-1.7,0.5-3.7,0.7-5.9,0.7c-3,0-5.8-0.5-8.3-1.5S7.9,36.3,6,34.6
	c-2-1.6-3.4-3.7-4.4-6.2C0.5,25.9,0,23.2,0,20.2z"/>
<path d="M48.5,39.4H36.3V0.9h13.3c2.5,0,4.7,0.3,6.8,1s3.9,1.6,5.4,2.9s2.7,2.8,3.6,4.7s1.3,4,1.3,6.4c0,1.9-0.3,3.6-0.8,4.9
	s-1.1,2.5-1.8,3.3c-0.8,1-1.6,1.8-2.6,2.5l7.2,12.7H54.3 M48.5,19.8h0.6c1.5,0,2.7-0.3,3.7-1s1.5-1.7,1.5-3.3c0-1.5-0.5-2.6-1.5-3.3
	c-1-0.7-2.3-1-3.7-1h-0.6V19.8z"/>
<path d="M69.9,0.9h22.7V11H82.2v4.3h10.2v9.6H82.2v4.4H93v10.1H69.9V0.9z"/>
<path d="M115.5,39.4h-9.6L93.2,0.9h13l4.4,13.4L115,0.9h8.4l4.4,13.4l4.4-13.4h13l-12.7,38.5h-9.6"/>
<path d="M169.6,20.2c0-2.8,0.5-5.4,1.6-7.8c1.1-2.5,2.5-4.6,4.3-6.4s4-3.3,6.4-4.3c2.5-1.1,5.1-1.6,7.8-1.6c2.8,0,5.4,0.5,7.8,1.6
	c2.5,1.1,4.6,2.5,6.4,4.3c1.8,1.8,3.3,4,4.3,6.4c1.1,2.5,1.6,5.1,1.6,7.8s-0.5,5.4-1.6,7.8c-1.1,2.5-2.5,4.6-4.3,6.4
	c-1.8,1.8-4,3.3-6.4,4.3c-2.5,1.1-5.1,1.6-7.8,1.6c-2.8,0-5.4-0.5-7.8-1.6s-4.6-2.5-6.4-4.3c-1.8-1.8-3.3-4-4.3-6.4
	C170.1,25.6,169.6,22.9,169.6,20.2z M181.7,20.2c0,1.1,0.2,2.2,0.6,3.1c0.4,1,1,1.8,1.7,2.6c0.7,0.7,1.6,1.3,2.6,1.7
	c1,0.4,2,0.6,3.1,0.6s2.2-0.2,3.1-0.6c1-0.4,1.8-1,2.6-1.7c0.7-0.7,1.3-1.6,1.7-2.6s0.6-2,0.6-3.1s-0.2-2.2-0.6-3.1
	c-0.4-1-1-1.8-1.7-2.6c-0.7-0.7-1.6-1.3-2.6-1.7s-2-0.6-3.1-0.6s-2.2,0.2-3.1,0.6c-1,0.4-1.8,1-2.6,1.7c-0.7,0.7-1.3,1.6-1.7,2.6
	C181.9,18,181.7,19.1,181.7,20.2z"/>
<path d="M225.4,39.4h-12.3V0.9h13.3c2.5,0,4.7,0.3,6.8,1s3.9,1.6,5.4,2.9s2.7,2.8,3.6,4.7c0.9,1.9,1.3,4,1.3,6.4
	c0,1.9-0.3,3.6-0.8,4.9s-1.1,2.5-1.8,3.3c-0.8,1-1.6,1.8-2.6,2.5l7.2,12.7h-14.4 M225.4,19.8h0.6c1.5,0,2.7-0.3,3.7-1
	s1.5-1.7,1.5-3.3c0-1.5-0.5-2.6-1.5-3.3c-1-0.7-2.3-1-3.7-1h-0.6V19.8z"/>
<path d="M251.3,11h-7.1V0.9H271V11h-7.1v28.4h-12.7V11H251.3z"/>
<path d="M265.6,39.4l14.6-38.5h9.2L304,39.4 M290.6,35.9H279 M287.4,27.4l-2.6-6.7l-2.6,6.7C282.2,27.4,287.4,27.4,287.4,27.4z"/>
<path d="M304.8,0.9h12.8v28.4h10.6v10.1h-23.4V0.9z"/>
<path d="M330.2,0.9h22.7V11h-10.4v4.3h10.2v9.6h-10.2v4.4h10.8v10.1h-23.1V0.9z"/>
<path d="M368.8,39.4h-12.1V0.9h10.1l10.6,14.8V0.9h12.1v38.5h-10.1"/>
<path d="M165,8.8c-0.9-1.9-2.2-3.4-3.8-4.5c-1.6-1.2-3.5-2-5.6-2.5S151.2,1,148.7,1v10.4c0.2,0,0.3,0,0.5,0c1.3,0,2.5,0.2,3.3,1
	c0.1,0,0.1,0.1,0.2,0.1c0,0,0,0,0,0.1c0.1,0.1,0.2,0.3,0.4,0.5l0.1,0.1c0.1,0.2,0.2,0.3,0.2,0.5c0,0.1,0.1,0.2,0.1,0.3
	s0,0.2,0.1,0.2c0.1,0.2,0.1,0.5,0.1,0.7c0,0.1,0,0.3,0,0.4c0,0.1,0,0.1,0,0.2c0,0,0,0,0,0.1v0.1c0,0.2,0,0.4-0.1,0.6
	c0,0.1,0,0.2,0,0.2c0,0.2-0.1,0.5-0.2,0.7c0,0.1,0,0.1-0.1,0.2c-0.1,0.2-0.2,0.4-0.3,0.6c0,0.1-0.1,0.1-0.1,0.2
	c-0.1,0.2-0.3,0.4-0.4,0.6l0,0l0,0c-0.8,0.9-2.1,1.4-3.5,1.4c-0.2,0-0.3,0-0.5,0v10.1c2.5,0,4.8-0.3,6.9-0.8c2.1-0.5,4-1.4,5.6-2.5
	c1.6-1.2,2.9-2.7,3.8-4.5c0.9-1.9,1.4-4.1,1.4-6.8C166.4,12.9,165.9,10.7,165,8.8z"/>
<path d="M-28.5-167.2c0-3.1,0.5-5.9,1.6-8.3c1.1-2.5,2.6-4.7,4.4-6.4c1.8-1.8,4-3.1,6.5-4.1c2.4-0.9,5-1.4,7.8-1.4
	c2.2,0,4.1,0.2,5.9,0.6c1.7,0.4,3.2,0.9,4.4,1.4c1.4,0.6,2.7,1.3,3.7,2l-6.1,10.7c-0.6-0.5-1.3-0.9-2-1.3c-0.7-0.3-1.4-0.6-2.3-0.9
	c-0.9-0.3-1.9-0.4-3.1-0.4s-2.3,0.2-3.3,0.6c-1,0.4-1.9,1-2.6,1.7c-0.7,0.7-1.3,1.6-1.8,2.6c-0.4,1-0.6,2-0.6,3.1
	c0,1.1,0.2,2.2,0.7,3.1c0.4,1,1,1.8,1.8,2.6c0.8,0.7,1.7,1.3,2.7,1.7c1,0.4,2.2,0.6,3.4,0.6c1.2,0,2.3-0.2,3.3-0.5
	c1-0.3,1.8-0.7,2.4-1c0.8-0.4,1.4-0.9,2-1.5l6.1,10.7c-1,0.8-2.3,1.6-3.7,2.2c-1.2,0.5-2.7,1-4.4,1.5c-1.7,0.5-3.7,0.7-5.9,0.7
	c-3,0-5.8-0.5-8.3-1.5s-4.7-2.4-6.6-4.1c-2-1.6-3.4-3.7-4.4-6.2C-28-161.5-28.5-164.2-28.5-167.2z"/>
<path d="M20-148H7.8v-38.5h13.3c2.5,0,4.7,0.3,6.8,1s3.9,1.6,5.4,2.9c1.5,1.3,2.7,2.8,3.6,4.7c0.9,1.9,1.3,4,1.3,6.4
	c0,1.9-0.3,3.6-0.8,4.9c-0.5,1.3-1.1,2.5-1.8,3.3c-0.8,1-1.6,1.8-2.6,2.5l7.2,12.7H25.8 M20-167.6h0.6c1.5,0,2.7-0.3,3.7-1
	c1-0.7,1.5-1.7,1.5-3.3c0-1.5-0.5-2.6-1.5-3.3s-2.3-1-3.7-1H20V-167.6z"/>
<path d="M41.4-186.5h22.7v10.1H53.7v4.3h10.2v9.6H53.7v4.4h10.8v10.1H41.4V-186.5z"/>
<path d="M87-148h-9.6l-12.7-38.5h13l4.4,13.4l4.4-13.4h8.4l4.4,13.4l4.4-13.4h13L104-148h-9.6"/>
<path d="M141.1-167.2c0-2.8,0.5-5.4,1.6-7.8c1.1-2.5,2.5-4.6,4.3-6.4c1.8-1.8,4-3.3,6.4-4.3c2.5-1.1,5.1-1.6,7.8-1.6
	c2.8,0,5.4,0.5,7.8,1.6c2.5,1.1,4.6,2.5,6.4,4.3c1.8,1.8,3.3,4,4.3,6.4c1.1,2.5,1.6,5.1,1.6,7.8s-0.5,5.4-1.6,7.8
	c-1.1,2.5-2.5,4.6-4.3,6.4s-4,3.3-6.4,4.3c-2.5,1.1-5.1,1.6-7.8,1.6c-2.8,0-5.4-0.5-7.8-1.6c-2.4-1.1-4.6-2.5-6.4-4.3
	c-1.8-1.8-3.3-4-4.3-6.4C141.6-161.8,141.1-164.5,141.1-167.2z M153.2-167.2c0,1.1,0.2,2.2,0.6,3.1c0.4,1,1,1.8,1.7,2.6
	c0.7,0.7,1.6,1.3,2.6,1.7c1,0.4,2,0.6,3.1,0.6s2.2-0.2,3.1-0.6c1-0.4,1.8-1,2.6-1.7c0.7-0.7,1.3-1.6,1.7-2.6s0.6-2,0.6-3.1
	c0-1.1-0.2-2.2-0.6-3.1c-0.4-1-1-1.8-1.7-2.6c-0.7-0.7-1.6-1.3-2.6-1.7c-1-0.4-2-0.6-3.1-0.6s-2.2,0.2-3.1,0.6c-1,0.4-1.8,1-2.6,1.7
	c-0.7,0.7-1.3,1.6-1.7,2.6C153.4-169.4,153.2-168.3,153.2-167.2z"/>
<path d="M196.9-148h-12.3v-38.5h13.3c2.5,0,4.7,0.3,6.8,1s3.9,1.6,5.4,2.9c1.5,1.3,2.7,2.8,3.6,4.7c0.9,1.9,1.3,4,1.3,6.4
	c0,1.9-0.3,3.6-0.8,4.9c-0.5,1.3-1.1,2.5-1.8,3.3c-0.8,1-1.6,1.8-2.6,2.5l7.2,12.7h-14.4 M196.9-167.6h0.6c1.5,0,2.7-0.3,3.7-1
	c1-0.7,1.5-1.7,1.5-3.3c0-1.5-0.5-2.6-1.5-3.3s-2.3-1-3.7-1h-0.6V-167.6z"/>
<path d="M222.8-176.4h-7.1v-10.1h26.8v10.1h-7.1v28.4h-12.7v-28.4H222.8z"/>
<path d="M237.1-148l14.6-38.5h9.2l14.6,38.5 M262.1-151.5h-11.6 M258.9-160l-2.6-6.7l-2.6,6.7C253.7-160,258.9-160,258.9-160z"/>
<path d="M276.3-186.5h12.8v28.4h10.6v10.1h-23.4V-186.5z"/>
<path d="M301.7-186.5h22.7v10.1H314v4.3h10.2v9.6H314v4.4h10.8v10.1h-23.1V-186.5z"/>
<path d="M340.3-148h-12.1v-38.5h10.1l10.6,14.8v-14.8H361v38.5h-10.1"/>
<path d="M136.5-178.6c-0.9-1.9-2.2-3.4-3.8-4.5c-1.6-1.2-3.5-2-5.6-2.5c-2.1-0.5-4.4-0.8-6.9-0.8v10.4c0.2,0,0.3,0,0.5,0
	c1.3,0,2.5,0.2,3.3,1c0.1,0,0.1,0.1,0.2,0.1c0,0,0,0,0,0.1c0.1,0.1,0.2,0.3,0.4,0.5l0.1,0.1c0.1,0.2,0.2,0.3,0.2,0.5
	c0,0.1,0.1,0.2,0.1,0.3c0,0.1,0,0.2,0.1,0.2c0.1,0.2,0.1,0.5,0.1,0.7c0,0.1,0,0.3,0,0.4c0,0.1,0,0.1,0,0.2c0,0,0,0,0,0.1v0.1
	c0,0.2,0,0.4-0.1,0.6c0,0.1,0,0.2,0,0.2c0,0.2-0.1,0.5-0.2,0.7c0,0.1,0,0.1-0.1,0.2c-0.1,0.2-0.2,0.4-0.3,0.6c0,0.1-0.1,0.1-0.1,0.2
	c-0.1,0.2-0.3,0.4-0.4,0.6l0,0l0,0c-0.8,0.9-2.1,1.4-3.5,1.4c-0.2,0-0.3,0-0.5,0v10.1c2.5,0,4.8-0.3,6.9-0.8c2.1-0.5,4-1.4,5.6-2.5
	c1.6-1.2,2.9-2.7,3.8-4.5c0.9-1.9,1.4-4.1,1.4-6.8C137.9-174.5,137.4-176.7,136.5-178.6z"/>
<path d="M192-271.8c-2.7-0.9-5.3-1.1-7.9-0.7c-2.7,0.4-5.2,1.4-7.7,2.9c-2.5,1.5-4.9,3.4-7.3,5.8l9.9,9.9c0.2-0.2,0.3-0.3,0.5-0.5
	c1.2-1.2,2.6-2.2,4.1-2.2c0.1-0.1,0.2,0,0.3-0.1c0,0,0,0,0.1,0.1c0.2,0,0.5,0.1,0.9,0.1h0.2c0.3,0.1,0.5,0.1,0.7,0.3
	c0.1,0.1,0.3,0.1,0.4,0.2c0.1,0.1,0.2,0.2,0.3,0.1c0.3,0.1,0.6,0.4,0.8,0.6c0.1,0.1,0.3,0.3,0.4,0.4c0.1,0.1,0.1,0.1,0.2,0.2
	c0,0,0,0,0.1,0.1l0.1,0.1c0.2,0.2,0.4,0.4,0.5,0.7c0.1,0.1,0.2,0.2,0.2,0.2c0.2,0.2,0.4,0.6,0.5,0.9c0.1,0.1,0.1,0.1,0.1,0.3
	c0.1,0.3,0.2,0.6,0.3,0.9c0.1,0.1,0,0.2,0.1,0.3c0.1,0.3,0.1,0.7,0.2,0.9l0,0l0,0c0.1,1.6-0.7,3.3-2,4.6c-0.2,0.2-0.3,0.3-0.5,0.5
	l9.6,9.6c2.4-2.4,4.3-4.8,5.8-7.3c1.5-2.5,2.5-5.1,2.9-7.7c0.4-2.7,0.2-5.3-0.7-7.9c-0.9-2.7-2.6-5.2-5.1-7.8
	C197.2-269.2,194.6-270.8,192-271.8z"/>
<path d="M143.7-234c2.7,0.9,5.3,1.1,7.9,0.7c2.7-0.4,5.2-1.4,7.7-2.9c2.5-1.5,4.9-3.4,7.3-5.8l-9.9-9.9c-0.2,0.2-0.3,0.3-0.5,0.5
	c-1.2,1.2-2.6,2.2-4.1,2.2c-0.1,0.1-0.2,0-0.3,0.1c0,0,0,0-0.1-0.1c-0.2,0-0.5-0.1-0.9-0.1h-0.2c-0.3-0.1-0.5-0.1-0.7-0.3
	c-0.1-0.1-0.3-0.1-0.4-0.2c-0.1-0.1-0.2-0.2-0.3-0.1c-0.3-0.1-0.6-0.4-0.8-0.6c-0.1-0.1-0.3-0.3-0.4-0.4c-0.1-0.1-0.1-0.1-0.2-0.2
	c0,0,0,0-0.1-0.1l-0.1-0.1c-0.2-0.2-0.4-0.4-0.5-0.7c-0.1-0.1-0.2-0.2-0.2-0.2c-0.2-0.2-0.4-0.6-0.5-0.9c-0.1-0.1-0.1-0.1-0.1-0.3
	c-0.1-0.3-0.2-0.6-0.3-0.9c-0.1-0.1,0-0.2-0.1-0.3c-0.1-0.3-0.1-0.7-0.2-0.9l0,0l0,0c-0.1-1.6,0.7-3.3,2-4.6
	c0.2-0.2,0.3-0.3,0.5-0.5l-9.6-9.6c-2.4,2.4-4.3,4.8-5.8,7.3c-1.5,2.5-2.5,5.1-2.9,7.7c-0.4,2.7-0.2,5.3,0.7,7.9
	c0.9,2.7,2.6,5.2,5.1,7.8C138.4-236.6,141-234.9,143.7-234z"/>
<rect x="168" y="-288.4" transform="matrix(0.7071 -0.7071 0.7071 0.7071 225.8871 49.4773)" width="9.4" height="81"/>
<path d="M-132.9-189.6c-1.2-2.5-2.9-4.6-5.1-6c-2.1-1.6-4.7-2.7-7.5-3.3c-2.8-0.7-5.9-1.1-9.2-1.1v13.9c0.3,0,0.4,0,0.7,0
	c1.7,0,3.3,0.3,4.4,1.3c0.1,0,0.1,0.1,0.3,0.1c0,0,0,0,0,0.1c0.1,0.1,0.3,0.4,0.5,0.7l0.1,0.1c0.1,0.3,0.3,0.4,0.3,0.7
	c0,0.1,0.1,0.3,0.1,0.4s0,0.3,0.1,0.3c0.1,0.3,0.1,0.7,0.1,0.9c0,0.1,0,0.4,0,0.5c0,0.1,0,0.1,0,0.3c0,0,0,0,0,0.1v0.1
	c0,0.3,0,0.5-0.1,0.8c0,0.1,0,0.3,0,0.3c0,0.3-0.1,0.7-0.3,0.9c0,0.1,0,0.1-0.1,0.3c-0.1,0.3-0.3,0.5-0.4,0.8c0,0.1-0.1,0.1-0.1,0.3
	c-0.1,0.3-0.4,0.5-0.5,0.8l0,0l0,0c-1.1,1.2-2.8,1.9-4.7,1.9c-0.3,0-0.4,0-0.7,0v13.5c3.3,0,6.4-0.4,9.2-1.1
	c2.8-0.7,5.4-1.9,7.5-3.3c2.1-1.6,3.9-3.6,5.1-6c1.2-2.5,1.9-5.5,1.9-9.1C-131-184.1-131.7-187-132.9-189.6z"/>
<path d="M-193.8-197c1.2,2.5,2.9,4.6,5.1,6c2.1,1.6,4.7,2.7,7.5,3.3c2.8,0.7,5.9,1.1,9.2,1.1v-13.9c-0.3,0-0.4,0-0.7,0
	c-1.7,0-3.3-0.3-4.4-1.3c-0.1,0-0.1-0.1-0.3-0.1c0,0,0,0,0-0.1c-0.1-0.1-0.3-0.4-0.5-0.7l-0.1-0.1c-0.1-0.3-0.3-0.4-0.3-0.7
	c0-0.1-0.1-0.3-0.1-0.4s0-0.3-0.1-0.3c-0.1-0.3-0.1-0.7-0.1-0.9c0-0.1,0-0.4,0-0.5s0-0.1,0-0.3c0,0,0,0,0-0.1v-0.1
	c0-0.3,0-0.5,0.1-0.8c0-0.1,0-0.3,0-0.3c0-0.3,0.1-0.7,0.3-0.9c0-0.1,0-0.1,0.1-0.3c0.1-0.3,0.3-0.5,0.4-0.8c0-0.1,0.1-0.1,0.1-0.3
	c0.1-0.3,0.4-0.5,0.5-0.8l0,0l0,0c1.1-1.2,2.8-1.9,4.7-1.9c0.3,0,0.4,0,0.7,0v-13.5c-3.3,0-6.4,0.4-9.2,1.1
	c-2.8,0.7-5.4,1.9-7.5,3.3c-2.1,1.6-3.9,3.6-5.1,6c-1.2,2.5-1.9,5.5-1.9,9.1C-195.6-202.5-195-199.6-193.8-197z"/>
<rect x="-168.1" y="-226.9" width="9.4" height="81"/>
</svg>
